<svg xmlns="http://www.w3.org/2000/svg" fill="none" viewBox="0 0 37 37"><path fill="#88CFB0" d="M12.7188 36.0635V25.0098h11.5624v4.5209c-.003 1.7337-.6939 3.3953-1.9208 4.6201-1.227 1.2248-2.8899 1.9127-4.6235 1.9127h-5.0181z"/><path fill="#2F2F3A" d="M17.7138 37.0001h-5.8969V24.0732h13.3662v5.4575c-.003 1.9801-.7909 3.8782-2.1911 5.2783-1.4001 1.4001-3.2982 2.1881-5.2782 2.1911zm-4.0353-1.8731h4.0353c1.4853 0 2.9099-.5892 3.9612-1.6384a5.60829 5.60829 0 001.6466-3.9579v-3.5843h-9.6431v9.1806z"/><path fill="#F2C94C" d="M24.5587 24.698V12.9736h11.5625v5.18a6.53398 6.53398 0 01-.4939 2.5036 6.53453 6.53453 0 01-1.4154 2.1233 6.53229 6.53229 0 01-2.1208 1.4191 6.53359 6.53359 0 01-2.5027.4984h-5.0297z"/><path fill="#2F2F3A" d="M29.5306 25.6346h-5.9084V12.0371H37v6.1166c0 1.982-.7866 3.8831-2.187 5.2857-1.4005 1.4026-3.3003 2.1921-5.2824 2.1952zm-4.0353-1.8731h4.0353a5.60829 5.60829 0 003.9579-1.6466c1.0491-1.0513 1.6384-2.4759 1.6384-3.9612v-4.2782h-9.6316v9.886z"/><path fill="#BD83CE" d="M24.2465 12.9736H12.7418V24.698h11.5047V12.9736z"/><path fill="#2F2F3A" d="M25.1831 25.6346H11.8169V12.0371h13.3662v13.5975zm-11.5625-1.8731h9.6432v-9.886h-9.5853l-.0579 9.886z"/><path fill="#40BE88" d="M.93652 12.7187V7.46934c0-1.73261.68828-3.39426 1.91342-4.6194C4.07508 1.6248 5.73673.93652 7.46934.93652h4.97186V12.7187H.93652z"/><path fill="#2F2F3A" d="M13.3778 13.5975H0V7.46938c.00306-1.98007.79099-3.87816 2.19111-5.27827C3.59122.79099 5.48931.00306 7.46938 0h5.90842v13.5975zM1.87313 11.7244h9.68937V1.87313H7.46938a5.59625 5.59625 0 00-5.59625 5.59625v4.25502z"/><path fill="#FF7474" d="M24.5587 12.7187V.93652h4.9719c1.7326 0 3.3942.68828 4.6194 1.91342 1.2251 1.22514 1.9134 2.88679 1.9134 4.6194v5.24936H24.5587z"/><path fill="#2F2F3A" d="M37 13.5975H23.6222V0h5.9084c1.9801.00306 3.8782.79099 5.2783 2.19111C36.209 3.59122 36.9969 5.48931 37 7.46938v6.12812zm-11.5047-1.8731h9.6316V7.46938a5.59625 5.59625 0 00-5.5963-5.59625h-4.0353v9.85127z"/><path fill="#6776F9" d="M24.2465.93652H12.7418V12.6609h11.5047V.93652z"/><path fill="#2F2F3A" d="M25.1831 13.5975H11.8169V0h13.3662v13.5975zm-11.5625-1.8731h9.6432V1.87313h-9.5853l-.0579 9.85127z"/><path fill="#37C2E2" d="M.93652 29.5307v-4.5209H12.499v11.0537H7.46934c-1.73261 0-3.39426-.6883-4.6194-1.9134C1.6248 32.925.93652 31.2633.93652 29.5307z"/><path fill="#2F2F3A" d="M13.3778 37.0001H7.46938c-1.98007-.003-3.87816-.791-5.27827-2.1911C.79099 33.4089.00306 31.5108 0 29.5307v-5.4575h13.3778v12.9269zM1.87313 25.9464v3.5843a5.59623 5.59623 0 005.59625 5.5963h4.09312v-9.1806H1.87313z"/><path fill="#F2994A" d="M12.4412 12.9736H.93652V24.698H12.4412V12.9736z"/><path fill="#2F2F3A" d="M13.3778 25.6346H0V12.0371h13.3778v13.5975zM1.87313 23.7615h9.68937v-9.886H1.87313v9.886z"/></svg>